<?xml version="1.0" encoding="UTF-8" standalone="no" ?>
<!DOCTYPE svg PUBLIC "-//W3C//DTD SVG 1.1//EN" "http://www.w3.org/Graphics/SVG/1.1/DTD/svg11.dtd">
<svg xmlns="http://www.w3.org/2000/svg" xmlns:xlink="http://www.w3.org/1999/xlink" version="1.1" width="1080" height="1080" viewBox="0 0 1080 1080" xml:space="preserve">
<desc>Created with Fabric.js 5.2.4</desc>
<defs>
</defs>
<g transform="matrix(1 0 0 1 540 540)" id="892dce78-ce97-4266-a777-9cee7ec5236d"  >
<rect style="stroke: none; stroke-width: 1; stroke-dasharray: none; stroke-linecap: butt; stroke-dashoffset: 0; stroke-linejoin: miter; stroke-miterlimit: 4; fill: rgb(17,26,31); fill-rule: nonzero; opacity: 1;" vector-effect="non-scaling-stroke"  x="-540" y="-540" rx="0" ry="0" width="1080" height="1080" />
</g>
<g transform="matrix(1 0 0 1 540 540)" id="a6074d69-94a4-4b19-a34e-fb3221d813b7"  >
</g>
<g transform="matrix(36.88 0 0 36.88 552 541)" id="9099787d-2830-4abb-a9cd-d42e9332e3e4"  >
<path style="stroke: rgb(0,0,0); stroke-width: 0; stroke-dasharray: none; stroke-linecap: butt; stroke-dashoffset: 0; stroke-linejoin: miter; stroke-miterlimit: 4; fill: rgb(232,153,130); fill-rule: nonzero; opacity: 1;" vector-effect="non-scaling-stroke"  transform=" translate(-12, -11.67)" d="M 3.40893 4.21134 L 4.62027 3 L 19.4227 17.8024 L 18.2113 19.0137 L 15.3591 16.1615 L 12 20.3454 L 2 7.88832 C 2.00627 7.88341 2.01349 7.87773 2.02165 7.87132 C 2.27033 7.6759 3.39 6.79602 5.1701 5.97251 L 3.40893 4.21134 Z M 21.943 7.84452 C 21.9667 7.86282 21.9857 7.87752 22 7.88832 L 17.5241 13.4725 L 8.82991 4.77835 C 9.80929 4.57217 10.866 4.45189 12 4.45189 C 17.5515 4.45189 21.3262 7.36799 21.943 7.84452 Z" stroke-linecap="round" />
</g>
<g transform="matrix(NaN NaN NaN NaN 0 0)"  >
<g style=""   >
</g>
</g>
<g transform="matrix(NaN NaN NaN NaN 0 0)"  >
<g style=""   >
</g>
</g>
</svg>